<?xml version="1.0" standalone="no"?>
<!DOCTYPE svg PUBLIC "-//W3C//DTD SVG 1.1//EN" "http://www.w3.org/Graphics/SVG/1.1/DTD/svg11.dtd" >
<svg xmlns="http://www.w3.org/2000/svg" xmlns:xlink="http://www.w3.org/1999/xlink" version="1.1">
<metadata></metadata>
<defs>
<font id="tex_gyre_adventorbold_italic" horiz-adv-x="1146" >
<font-face units-per-em="2048" ascent="1669" descent="-379" />
<missing-glyph horiz-adv-x="573" />
<glyph unicode="&#xfb01;" horiz-adv-x="1064" d="M55 0l164 887h-98l43 227h98q53 203 170.5 301t272.5 98q34 0 79 -4l-49 -258h-37q-75 0 -114.5 -33t-48.5 -104h159l-43 -227h-159l-164 -887h-273zM623 0l211 1135h272l-211 -1135h-272zM862 1298l51 271h273l-51 -271h-273z" />
<glyph unicode="&#xfb02;" horiz-adv-x="1064" d="M55 0l164 887h-98l43 227h98q53 203 170.5 301t272.5 98q34 0 79 -4l-49 -258h-37q-75 0 -114.5 -33t-48.5 -104h159l-43 -227h-159l-164 -887h-273zM623 0l280 1513h273l-281 -1513h-272z" />
<glyph unicode="&#xfb04;" horiz-adv-x="1632" d="M55 0l164 887h-98l43 227h98q53 203 170.5 301t272.5 98q34 0 79 -4l-49 -258h-37q-75 0 -114.5 -33t-48.5 -104h294q53 203 170.5 301t272.5 98q35 0 80 -4l-49 -258h-37q-147 0 -164 -137h160l-43 -227h-160l-164 -887h-272l163 887h-294l-164 -887h-273zM1190 0 l280 1513h273l-281 -1513h-272z" />
<glyph horiz-adv-x="0" />
<glyph horiz-adv-x="682" />
<glyph unicode=" "  horiz-adv-x="573" />
<glyph unicode="&#x09;" horiz-adv-x="573" />
<glyph unicode="&#xa0;" horiz-adv-x="573" />
<glyph unicode="!" horiz-adv-x="573" d="M86 0l49 262h273l-50 -262h-272zM158 385l209 1128h272l-209 -1128h-272z" />
<glyph unicode="&#x22;" horiz-adv-x="737" d="M285 1051l86 462h155l-86 -462h-155zM557 1051l86 462h156l-86 -462h-156z" />
<glyph unicode="#" d="M96 477l39 205h227l60 182h-195l37 205h223l144 444h186l-143 -444h172l143 444h182l-141 -444h184l-36 -205h-211l-58 -182h181l-39 -205h-209l-154 -477h-186l155 477h-172l-153 -477h-187l154 477h-203zM549 682h174l57 182h-172z" />
<glyph unicode="$" d="M143 424q0 35 11 86h274q-4 -36 -4 -43q0 -55 41 -94t98 -39q86 0 148.5 61.5t62.5 147.5q0 34 -12 56t-45 48q-25 20 -48 30.5t-149 61.5q-205 81 -205 281q0 102 40 197.5t121 167.5t188 96l49 272h260l-49 -272q90 -24 141 -103t51 -172q0 -28 -6 -78h-258 q0 59 -27.5 93t-76.5 34q-63 0 -107.5 -46.5t-44.5 -112.5q0 -63 37 -95q25 -23 61.5 -40t179.5 -74q181 -71 181 -256q0 -195 -103 -337.5t-286 -199.5l-50 -270h-260l50 270q-124 34 -193.5 121t-69.5 209z" />
<glyph unicode="%" horiz-adv-x="1761" d="M193 1106q0 111 63 212t166.5 161.5t216.5 60.5q132 0 219.5 -86t87.5 -215q0 -84 -37.5 -164.5t-98.5 -140.5t-144 -96.5t-170 -36.5q-131 0 -217 86.5t-86 218.5zM395 0l905 1513h211l-907 -1513h-209zM414 1151q0 -60 35 -95.5t94 -35.5q69 0 125.5 55.5t56.5 122.5 q0 54 -36.5 89.5t-92.5 35.5q-68 0 -125 -54t-57 -118zM963 272q0 114 62 216.5t165 163.5t219 61q132 0 219.5 -86t87.5 -215q0 -113 -63 -215t-167.5 -163t-221.5 -61q-127 0 -214 86.5t-87 212.5zM1184 315q0 -53 35.5 -87.5t89.5 -34.5q72 0 129 56t57 126 q0 50 -37.5 85.5t-91.5 35.5q-72 0 -127 -55t-55 -126z" />
<glyph unicode="&#x26;" horiz-adv-x="1392" d="M84 367q0 166 92 293t285 227q-51 69 -67.5 110t-16.5 97q0 114 63.5 217.5t169.5 166t224 62.5q143 0 236 -81.5t93 -207.5q0 -143 -65 -245t-248 -209l111 -156l190 246h305l-346 -451l217 -289l-227 -174l-172 228q-120 -129 -212.5 -178.5t-213.5 -49.5 q-184 0 -301 110.5t-117 283.5zM358 406q0 -74 47.5 -118t126.5 -44q133 0 244 162l-188 253q-129 -56 -179.5 -117.5t-50.5 -135.5zM639 1130q0 -32 17 -64.5t59 -80.5l16 8q166 65 166 203q0 37 -30 62.5t-74 25.5q-61 0 -107.5 -46t-46.5 -108z" />
<glyph unicode="'" horiz-adv-x="450" d="M285 1051l86 462h155l-86 -462h-155z" />
<glyph unicode="(" horiz-adv-x="778" d="M188 434q0 213 102.5 443.5t270.5 398.5q83 83 163 133.5t210 103.5l-55 -294q-197 -140 -303.5 -334.5t-106.5 -415.5q0 -140 51.5 -266.5t134.5 -186.5l-55 -297q-174 60 -293 260t-119 455z" />
<glyph unicode=")" horiz-adv-x="778" d="M-35 -281l55 295q194 137 302 336t108 420q0 133 -53.5 261t-134.5 186l55 296q181 -63 297.5 -261.5t116.5 -442.5q0 -226 -90.5 -441t-261.5 -386.5t-394 -262.5z" />
<glyph unicode="*" horiz-adv-x="901" d="M299 1178l27 145l200 -47l-75 197l141 40l57 -190l123 158l111 -97l-142 -149l201 -25l-27 -143l-196 45l78 -186l-133 -56l-62 197l-123 -162l-119 86l144 164z" />
<glyph unicode="+" horiz-adv-x="1228" d="M158 371v282h362v363h283v-363h362v-282h-362v-363h-283v363h-362z" />
<glyph unicode="," horiz-adv-x="573" d="M35 -287l24 137q145 18 148 150h-119l49 262h273l-52 -276q-23 -120 -108.5 -196.5t-192.5 -76.5h-22z" />
<glyph unicode="-" horiz-adv-x="860" d="M188 469l45 242h568l-45 -242h-568z" />
<glyph unicode="." horiz-adv-x="573" d="M86 0l49 262h275l-50 -262h-274z" />
<glyph unicode="/" horiz-adv-x="942" d="M-57 -262l991 1775h192l-989 -1775h-194z" />
<glyph unicode="0" d="M78 379q0 63 12 127l96 514q44 239 206 379.5t392 140.5q197 0 313.5 -103t116.5 -276q0 -63 -12 -127l-98 -528q-46 -254 -206 -393.5t-384 -139.5q-205 0 -320.5 107.5t-115.5 298.5zM356 424q0 -103 53 -152t146 -49q104 0 176 68.5t100 214.5l97 514q8 39 8 86 q0 87 -51 135.5t-142 48.5q-109 0 -185 -72t-99 -198l-94 -506q-9 -44 -9 -90z" />
<glyph unicode="1" d="M442 0l234 1257h-191l47 256h463l-280 -1513h-273z" />
<glyph unicode="2" d="M25 0l45 240l626 510q122 98 176 181t54 171q0 84 -47.5 136t-124.5 52q-107 0 -181.5 -76t-111.5 -223h-268q29 131 57 197.5t82 130.5q88 106 209.5 163.5t255.5 57.5q183 0 296 -108t113 -283q0 -174 -83.5 -304.5t-311.5 -307.5l-362 -281h595l-47 -256h-972z" />
<glyph unicode="3" d="M47 377q0 29 6 82h275v-15q0 -102 53 -161.5t145 -59.5q118 0 203.5 94t85.5 205q0 91 -64.5 149t-185.5 58h-47l49 262q135 3 197.5 48.5t62.5 138.5q0 52 -27.5 82t-74.5 30q-57 0 -97 -35.5t-57 -101.5h-276q46 183 176.5 285t296.5 102q154 0 247 -90.5t93 -239.5 q0 -226 -182 -338q91 -51 130.5 -118t39.5 -168q0 -124 -49.5 -237.5t-132 -195.5t-197 -131t-238.5 -49q-191 0 -311.5 115t-120.5 289z" />
<glyph unicode="4" d="M-20 227l40 219l895 1067h230l-193 -1044h160l-45 -242h-160l-43 -227h-272l43 227h-655zM303 469h377l108 586z" />
<glyph unicode="5" d="M41 375q0 25 6 78h272q0 -110 53 -170t152 -60q123 0 212 103t89 237q0 94 -55.5 151.5t-144.5 57.5q-63 0 -115 -26t-115 -89l-229 66l289 790h684l-47 -256h-480l-102 -278q71 25 114 34t93 9q178 0 283.5 -112t105.5 -300q0 -163 -85 -310t-230.5 -237t-311.5 -90 q-184 0 -311 120.5t-127 281.5z" />
<glyph unicode="6" d="M66 377q0 140 56 270.5t177 272.5l506 593h325l-462 -538q64 20 129 20q158 0 248 -104.5t90 -272.5q0 -80 -22.5 -159.5t-62.5 -150.5t-98.5 -133t-127 -106.5t-151.5 -70t-169 -25.5q-189 0 -313.5 117t-124.5 287zM346 428q0 -94 56.5 -149.5t152.5 -55.5 q121 0 210 96.5t89 227.5q0 94 -56.5 151.5t-148.5 57.5q-127 0 -215 -95.5t-88 -232.5z" />
<glyph unicode="7" d="M113 0l794 1257h-600l47 256h889l-47 -256l-778 -1257h-305z" />
<glyph unicode="8" d="M80 389q0 137 76 262.5t213 190.5q-44 61 -61 106.5t-17 102.5q0 124 71 238t188 182.5t245 68.5q148 0 241.5 -90t93.5 -231q0 -111 -45.5 -212t-138.5 -165q83 -54 118.5 -116.5t35.5 -164.5q0 -151 -83.5 -287.5t-223 -218.5t-293.5 -82q-191 0 -305.5 113.5 t-114.5 302.5zM360 416q0 -87 52 -140t137 -53q106 0 188 86.5t82 196.5q0 85 -52 138.5t-134 53.5q-106 0 -189.5 -86t-83.5 -196zM553 1090q0 -54 36.5 -91.5t90.5 -37.5q73 0 130.5 59.5t57.5 136.5q0 63 -33 98t-92 35q-74 0 -132 -61t-58 -139z" />
<glyph unicode="9" d="M160 0l465 539q-74 -25 -129 -25q-152 0 -244 104.5t-92 276.5q0 121 50 238t133.5 207t200 145t242.5 55q192 0 315.5 -114t123.5 -291q0 -138 -56.5 -268.5t-177.5 -272.5l-506 -594h-325zM440 961q0 -91 56.5 -149t144.5 -58q128 0 215.5 96t87.5 235 q0 92 -57.5 148.5t-149.5 56.5q-127 0 -212 -101t-85 -228z" />
<glyph unicode=":" horiz-adv-x="573" d="M86 0l49 262h275l-50 -262h-274zM225 766l49 262h275l-49 -262h-275z" />
<glyph unicode=";" horiz-adv-x="573" d="M35 -287l24 137q145 18 148 150h-119l49 262h273l-52 -276q-23 -120 -108.5 -196.5t-192.5 -76.5h-22zM225 766l49 262h275l-49 -262h-275z" />
<glyph unicode="&#x3c;" horiz-adv-x="1228" d="M180 401v222l875 692v-361l-559 -442l559 -442v-361z" />
<glyph unicode="=" horiz-adv-x="1228" d="M158 182v283h1007v-283h-1007zM158 559v283h1007v-283h-1007z" />
<glyph unicode="&#x3e;" horiz-adv-x="1228" d="M180 70l559 442l-559 442v361l875 -692v-222l-875 -692v361z" />
<glyph unicode="?" d="M203 1065q52 217 204 346t353 129q169 0 274 -105t105 -272q0 -149 -82 -268q-28 -39 -71.5 -80t-133.5 -110q-98 -76 -133 -136t-57 -186h-273q25 137 60.5 219.5t98 149.5t183.5 153q60 43 93.5 99.5t33.5 113.5q0 68 -45 110t-117 42q-161 0 -221 -205h-272zM319 0 l48 262h272l-47 -262h-273z" />
<glyph unicode="@" horiz-adv-x="1515" d="M70 602q0 191 77.5 369.5t206 309.5t305 209.5t365.5 78.5q181 0 318.5 -65t217.5 -197.5t80 -317.5q0 -143 -42 -268.5t-114 -214t-173 -140t-215 -51.5q-170 0 -185 111q-96 -111 -256 -111q-126 0 -199 76t-73 207q0 154 70.5 289t189.5 215t254 80q82 0 132.5 -28 t84.5 -91l35 111h199l-183 -605q-8 -32 -8 -51q0 -33 49 -33q67 0 135.5 69.5t114 184.5t45.5 236q0 202 -134.5 323t-358.5 121q-160 0 -307.5 -63.5t-255 -170t-172 -252.5t-64.5 -304q0 -224 157.5 -365t411.5 -141q92 0 169.5 22.5t162.5 73.5l72 -123 q-116 -69 -208.5 -96t-219.5 -27q-155 0 -284.5 48.5t-216.5 133t-135 200t-48 247.5zM637 672q0 -66 35 -103t98 -37q98 0 174 86.5t76 196.5q0 66 -32 101.5t-91 35.5q-103 0 -181.5 -85t-78.5 -195z" />
<glyph unicode="A" horiz-adv-x="1515" d="M-47 0l911 1513h221l355 -1513h-310l-90 391h-538l-240 -391h-309zM655 662h324l-78 456z" />
<glyph unicode="B" horiz-adv-x="1187" d="M78 0l280 1513h314q173 0 252 -14t139 -57q119 -87 119 -254q0 -121 -56.5 -216t-169.5 -147q107 -46 152 -111t45 -173q0 -114 -44.5 -212t-127.5 -171.5t-212 -115.5t-288 -42h-403zM408 270h139q166 0 242.5 61t76.5 163q0 86 -60 123.5t-194 37.5h-133zM530 930h91 q150 0 212 50.5t62 143.5q0 58 -49.5 88.5t-143.5 30.5h-114z" />
<glyph unicode="C" horiz-adv-x="1597" d="M127 621q0 174 79 343t207 295t300 203.5t348 77.5q233 0 403.5 -118t231.5 -343h-316q-59 102 -144.5 146.5t-215.5 44.5q-113 0 -223 -48t-194.5 -128.5t-136.5 -192t-52 -231.5q0 -186 118.5 -306t301.5 -120q110 0 202 40t207 138h330q-123 -204 -337.5 -326.5 t-447.5 -122.5q-191 0 -342.5 84.5t-235 232t-83.5 331.5z" />
<glyph unicode="D" horiz-adv-x="1433" d="M78 0l280 1513h347q200 0 342.5 -38.5t228.5 -115t126 -183t40 -250.5q0 -227 -106.5 -439.5t-280.5 -334.5q-117 -82 -262 -117t-363 -35h-352zM408 268h61q189 0 307.5 38.5t204.5 127.5q174 180 174 428q0 98 -25 167t-83.5 118.5t-158 73.5t-243.5 24h-55z" />
<glyph unicode="E" horiz-adv-x="1064" d="M78 0l280 1513h813l-49 -270h-532l-68 -352h510l-49 -270h-510l-65 -351h532l-49 -270h-813z" />
<glyph unicode="F" horiz-adv-x="983" d="M78 0l280 1513h770l-49 -270h-489l-68 -352h467l-49 -270h-467l-115 -621h-280z" />
<glyph unicode="G" horiz-adv-x="1720" d="M125 614q0 178 80 348.5t210.5 297t307 203.5t360.5 77q162 0 305 -64t235 -171.5t114 -235.5h-330q-122 201 -369 201q-127 0 -243.5 -50.5t-200 -134t-133 -194.5t-49.5 -227q0 -184 121.5 -302t322.5 -118q148 0 278.5 70.5t213.5 195.5h-627l49 262h987 q-16 -154 -101.5 -301t-212.5 -256t-292 -175.5t-332 -66.5q-201 0 -359.5 81.5t-246.5 228t-88 331.5z" />
<glyph unicode="H" horiz-adv-x="1392" d="M78 0l280 1513h281l-113 -608h541l113 608h280l-280 -1513h-281l117 635h-541l-117 -635h-280z" />
<glyph unicode="I" horiz-adv-x="573" d="M78 0l280 1513h281l-281 -1513h-280z" />
<glyph unicode="J" horiz-adv-x="983" d="M16 287q0 13 4 71h281l2 -14q7 -52 34.5 -76t78.5 -24q69 0 111 48.5t61 149.5l198 1071h281l-201 -1079q-43 -223 -178 -342t-315 -119q-157 0 -257 88t-100 226z" />
<glyph unicode="K" horiz-adv-x="1269" d="M78 0l280 1513h281l-121 -653l592 653h336l-705 -743l424 -770h-336l-348 666l-123 -666h-280z" />
<glyph unicode="L" horiz-adv-x="901" d="M78 0l280 1513h281l-231 -1243h464l-49 -270h-745z" />
<glyph unicode="M" horiz-adv-x="1843" d="M78 0l280 1513h385l195 -1146l616 1146h385l-280 -1513h-281l211 1135l-606 -1135h-229l-185 1135l-211 -1135h-280z" />
<glyph unicode="N" horiz-adv-x="1515" d="M78 0l280 1513h320l422 -1101l205 1101h280l-280 -1513h-314l-428 1100l-205 -1100h-280z" />
<glyph unicode="O" horiz-adv-x="1720" d="M125 614q0 122 37.5 241.5t102.5 220.5t156.5 187.5t196.5 147t225 95t240 34.5q186 0 334 -81.5t231 -228t83 -331.5q0 -179 -78 -349.5t-205.5 -296.5t-301 -203t-355.5 -77q-191 0 -343 82t-237.5 228.5t-85.5 330.5zM412 662q0 -183 120.5 -300.5t307.5 -117.5 q155 0 294.5 83.5t224.5 226t85 304.5q0 180 -117 296t-299 116q-156 0 -298.5 -84.5t-230 -226t-87.5 -297.5z" />
<glyph unicode="P" d="M78 0l280 1513h375q149 0 234 -15.5t139 -53.5q141 -101 141 -293q0 -117 -49 -234.5t-131 -195.5q-93 -89 -194 -117.5t-318 -28.5h-90l-107 -575h-280zM514 844h82q86 0 150 12t114 39t75.5 74t25.5 114q0 61 -20.5 93.5t-80.5 49.5t-176 17h-94z" />
<glyph unicode="Q" horiz-adv-x="1720" d="M125 612q0 181 79.5 352t210.5 297t308 202.5t364 76.5q300 0 486 -174t186 -455q0 -194 -73.5 -360t-212.5 -287q68 -45 141 -45q20 0 61 6l-47 -254q-20 -2 -49 -2q-97 0 -163 24.5t-161 98.5q-218 -119 -446 -119q-194 0 -350.5 82.5t-245 229t-88.5 327.5zM410 684 q105 27 252 27q352 0 616 -293q91 74 143 190t52 248q0 185 -121 299.5t-316 114.5q-156 0 -293.5 -73.5t-228 -208.5t-104.5 -304zM455 465q127 -221 401 -221q97 0 197 39q-87 87 -201 142.5t-248 55.5q-61 0 -149 -16z" />
<glyph unicode="R" horiz-adv-x="1187" d="M78 0l280 1513h437q135 0 232 -27.5t152 -80t80 -119t25 -153.5q0 -212 -126 -364t-361 -210l305 -559h-346l-291 580l-107 -580h-280zM506 791h137q96 0 166.5 21.5t110.5 60.5t58.5 87t18.5 107q0 95 -60 135.5t-222 40.5h-125z" />
<glyph unicode="S" horiz-adv-x="1064" d="M39 350q0 16 4 82h293q-2 -16 -2 -43q0 -68 46 -106.5t128 -38.5q102 0 174 64.5t72 156.5q0 78 -45 117q-29 25 -63.5 41.5t-178.5 74.5q-128 51 -188 133t-60 205q0 129 72.5 246t194 187.5t255.5 70.5q164 0 273.5 -95.5t109.5 -238.5q0 -44 -8 -96h-289 q0 90 -31.5 125t-103.5 35q-76 0 -131 -55t-55 -132q0 -59 61 -104q36 -24 156 -68q169 -63 243 -149t74 -219q0 -146 -81 -278t-215 -212t-281 -80q-190 0 -307 105t-117 272z" />
<glyph unicode="T" horiz-adv-x="860" d="M182 1243l49 270h844l-49 -270h-285l-231 -1243h-281l232 1243h-279z" />
<glyph unicode="U" horiz-adv-x="1310" d="M162 360q0 89 20 195l176 958h281l-176 -958q-19 -105 -19 -143q0 -69 56 -118.5t133 -49.5q114 0 187 73.5t104 237.5l176 958h280l-176 -958q-51 -279 -219.5 -430.5t-400.5 -151.5q-183 0 -302.5 110t-119.5 277z" />
<glyph unicode="V" horiz-adv-x="1433" d="M236 1513h294l195 -1151l621 1151h294l-866 -1513h-229z" />
<glyph unicode="W" horiz-adv-x="1843" d="M233 1513h287l70 -1056l454 1056h205l58 -1056l465 1056h286l-723 -1513h-223l-57 1001l-437 -1001h-221z" />
<glyph unicode="X" horiz-adv-x="1392" d="M-51 0l659 754l-379 759h334l254 -528l461 528h326l-666 -759l385 -754h-326l-266 522l-448 -522h-334z" />
<glyph unicode="Y" horiz-adv-x="1269" d="M225 1513h303l205 -696l465 696h303l-674 -954l-104 -559h-281l105 559z" />
<glyph unicode="Z" horiz-adv-x="1024" d="M-25 0l43 240l762 1003h-542l49 270h876l-47 -253l-754 -990h609l-49 -270h-947z" />
<glyph unicode="[" horiz-adv-x="655" d="M143 150q0 102 23 233l98 530q41 236 183.5 390t369.5 210l-55 -301q-103 -39 -152 -114.5t-80 -239.5l-98 -522q-10 -62 -10 -115q0 -82 26 -125.5t93 -75.5l-56 -301q-161 38 -251.5 154.5t-90.5 276.5z" />
<glyph unicode="\" horiz-adv-x="1310" d="M391 1513h197l381 -1513h-197z" />
<glyph unicode="]" horiz-adv-x="655" d="M-35 -281l55 301q106 35 156.5 110.5t83.5 244.5l98 522q11 68 11 115q0 84 -26.5 126t-100.5 74l55 301q165 -32 257.5 -149t92.5 -281q0 -107 -22 -233l-99 -531q-44 -242 -187 -395.5t-374 -204.5z" />
<glyph unicode="^" horiz-adv-x="1228" d="M205 776l502 760h247l234 -803l-236 -67l-170 553l-376 -555z" />
<glyph unicode="_" horiz-adv-x="1024" d="M-115 -283l33 185h1026l-33 -185h-1026z" />
<glyph unicode="`" horiz-adv-x="860" d="M262 1473l172 202l387 -260l-149 -180z" />
<glyph unicode="a" horiz-adv-x="1351" d="M92 436q0 145 57 279.5t152 232t225.5 155.5t272.5 58q237 0 334 -178l26 152h250l-209 -1135h-250l27 147q-96 -91 -193 -132.5t-217 -41.5q-215 0 -345 127t-130 336zM373 492q0 -123 75 -196t201 -73q170 0 287 119.5t117 298.5q0 124 -74.5 197t-200.5 73 q-107 0 -200.5 -57.5t-149 -154.5t-55.5 -207z" />
<glyph unicode="b" horiz-adv-x="1351" d="M49 0l281 1513h272l-90 -483q100 81 185.5 113.5t203.5 32.5q201 0 331 -133.5t130 -340.5q0 -195 -96 -364.5t-250 -267t-322 -97.5q-129 0 -207.5 35.5t-160.5 136.5l-27 -145h-250zM403 494q0 -120 77 -195.5t200 -75.5q164 0 282.5 124t118.5 296q0 129 -74 206 t-198 77q-167 0 -286.5 -127t-119.5 -305z" />
<glyph unicode="c" horiz-adv-x="1310" d="M96 457q0 182 100 345t266 261t351 98q195 0 329.5 -103.5t168.5 -301.5h-307q-23 75 -83 115t-149 40q-161 0 -278 -121t-117 -288q0 -126 73.5 -202.5t194.5 -76.5q83 0 158.5 39.5t128.5 110.5h307q-109 -192 -274 -296t-363 -104q-218 0 -362 138.5t-144 345.5z" />
<glyph unicode="d" horiz-adv-x="1351" d="M94 451q0 141 57.5 275t152 232.5t223 158t264.5 59.5q104 0 190.5 -38t132.5 -104l88 479h273l-281 -1513h-250l29 147q-186 -174 -408 -174q-212 0 -341.5 131.5t-129.5 346.5zM375 508q0 -126 78 -205.5t204 -79.5q102 0 195 59t149 156.5t56 204.5q0 128 -75 205.5 t-198 77.5q-108 0 -203 -57t-150.5 -153.5t-55.5 -207.5z" />
<glyph unicode="e" horiz-adv-x="1310" d="M94 457q0 182 100.5 345t267.5 261t353 98q214 0 349.5 -129t135.5 -332q0 -161 -40 -254h-879q0 -98 74.5 -160.5t191.5 -62.5q164 0 277 113h297q-92 -169 -256.5 -266t-356.5 -97q-227 0 -370.5 135t-143.5 349zM418 688h629q-12 223 -275 223q-119 0 -216.5 -61.5 t-137.5 -161.5z" />
<glyph unicode="f" horiz-adv-x="573" d="M55 0l164 887h-98l43 227h98q53 203 170.5 301t272.5 98q34 0 79 -4l-49 -258h-37q-75 0 -114.5 -33t-48.5 -104h159l-43 -227h-159l-164 -887h-273z" />
<glyph unicode="g" horiz-adv-x="1351" d="M0 -92h309q46 -65 107 -93t157 -28q150 0 243 86t142 277q-99 -96 -191 -136.5t-212 -40.5q-211 0 -336 128t-125 343q0 191 93 356.5t251.5 263t341.5 97.5q119 0 197.5 -40t136.5 -130l27 144h260l-170 -920q-64 -345 -249 -506.5t-466 -161.5q-417 0 -516 361z M375 477q0 -119 69.5 -186.5t192.5 -67.5q169 0 282 125.5t113 296.5q0 120 -73.5 193t-194.5 73q-169 0 -279 -122.5t-110 -311.5z" />
<glyph unicode="h" horiz-adv-x="1228" d="M49 0l281 1513h272l-84 -456q127 106 305 106q169 0 270 -89t101 -238q0 -89 -20 -195l-119 -641h-273l107 580q18 99 18 165q0 80 -46.5 124t-131.5 44q-122 0 -194.5 -76.5t-106.5 -261.5l-106 -575h-273z" />
<glyph unicode="i" horiz-adv-x="491" d="M49 0l211 1135h272l-210 -1135h-273zM291 1298l51 271h272l-51 -271h-272z" />
<glyph unicode="j" horiz-adv-x="532" d="M-96 -379l49 264q76 13 102.5 48t46.5 149l195 1053h272l-196 -1059q-35 -212 -158 -331t-311 -124zM328 1298l51 271h272l-51 -271h-272z" />
<glyph unicode="k" horiz-adv-x="1187" d="M49 0l281 1513h272l-170 -913l461 535h326l-508 -555l364 -580h-366l-289 530l-98 -530h-273z" />
<glyph unicode="l" horiz-adv-x="491" d="M49 0l281 1513h272l-280 -1513h-273z" />
<glyph unicode="m" horiz-adv-x="1925" d="M49 0l211 1135h250l-21 -107q71 71 146.5 102t177.5 31q109 0 182.5 -40t114.5 -136q157 176 399 176q180 0 279.5 -89t99.5 -249q0 -74 -16 -168l-121 -655h-272l114 623q15 96 15 137q0 66 -47.5 108.5t-122.5 42.5q-60 0 -103 -15t-81 -53t-65.5 -108t-47.5 -176 l-105 -559h-272l115 623q14 82 14 112q0 176 -180 176q-81 0 -132.5 -29t-90.5 -106.5t-64 -216.5l-104 -559h-273z" />
<glyph unicode="n" horiz-adv-x="1228" d="M49 0l211 1135h252l-20 -109q94 75 168.5 105t168.5 30q175 0 270 -87t95 -249q0 -76 -25 -217l-112 -608h-273l103 555q18 102 18 188q0 168 -172 168q-58 0 -102 -15t-86 -54t-73 -115.5t-52 -191.5l-98 -535h-273z" />
<glyph unicode="o" horiz-adv-x="1310" d="M94 453q0 138 60 268.5t158.5 226.5t233 154.5t275.5 58.5q218 0 359 -138.5t141 -352.5q0 -135 -60.5 -263.5t-160 -223t-234.5 -152.5t-276 -58q-211 0 -353.5 138t-142.5 342zM375 500q0 -120 76.5 -198.5t193.5 -78.5q100 0 192 58t147.5 153.5t55.5 198.5 q0 120 -75.5 199t-190.5 79q-102 0 -195 -57.5t-148.5 -153t-55.5 -200.5z" />
<glyph unicode="p" horiz-adv-x="1351" d="M-20 -379l280 1514h250l-25 -134q72 75 179 117.5t221 42.5q207 0 338 -123t131 -333q0 -148 -54.5 -283t-147 -233.5t-220 -157t-266.5 -58.5q-203 0 -324 133l-90 -485h-272zM403 494q0 -117 79 -194t200 -77q99 0 190 58.5t146 153.5t55 198q0 118 -72.5 198 t-195.5 80q-161 0 -281.5 -125t-120.5 -292z" />
<glyph unicode="q" horiz-adv-x="1351" d="M96 457q0 182 96.5 345t257.5 261t341 98q112 0 200 -43t131 -129l29 146h250l-281 -1514h-272l90 488q-74 -65 -171.5 -100.5t-201.5 -35.5q-209 0 -339 134.5t-130 349.5zM377 498q0 -126 73 -200.5t197 -74.5q158 0 277.5 122.5t119.5 283.5q0 127 -73 204.5 t-193 77.5q-163 0 -282 -122.5t-119 -290.5z" />
<glyph unicode="r" horiz-adv-x="655" d="M49 0l211 1135h250l-21 -111q66 80 130 110q58 27 145 27h18l-49 -262q-120 -1 -199 -73t-96 -195l-116 -631h-273z" />
<glyph unicode="s" horiz-adv-x="901" d="M39 281q0 17 4 79h274q1 -67 34 -102t93 -35q59 0 102.5 38.5t43.5 92.5q0 40 -32.5 64.5t-135.5 60.5q-149 52 -203.5 111.5t-54.5 167.5q0 107 61 200t165 148t224 55q126 0 219 -78t93 -184q0 -31 -6 -78h-267q-3 90 -90 90q-47 0 -83 -34t-36 -78q0 -25 7 -36.5 t42 -28t119 -42.5q146 -47 202 -104.5t56 -159.5q0 -118 -67.5 -223.5t-179.5 -168.5t-238 -63q-154 0 -250 85.5t-96 222.5z" />
<glyph unicode="t" horiz-adv-x="614" d="M90 0l164 887h-133l47 248h133l70 378h272l-70 -378h164l-47 -248h-164l-164 -887h-272z" />
<glyph unicode="u" horiz-adv-x="1228" d="M119 311q0 83 24 215l113 609h272l-102 -555q-20 -104 -20 -178v-19q0 -75 44.5 -117.5t122.5 -42.5q67 0 114.5 15t89.5 55.5t71.5 115.5t50.5 191l98 535h273l-211 -1135h-252l20 109q-89 -73 -171 -104.5t-185 -31.5q-165 0 -258.5 95t-93.5 243z" />
<glyph unicode="v" d="M152 1135h303l123 -752l397 752h307l-668 -1135h-217z" />
<glyph unicode="w" horiz-adv-x="1638" d="M170 1135h293l74 -693l319 693h217l57 -693l336 693h291l-620 -1135h-170l-78 735l-357 -735h-167z" />
<glyph unicode="x" d="M-59 0l512 586l-246 549h307l141 -342l265 342h307l-449 -549l295 -586h-328l-165 389l-312 -389h-327z" />
<glyph unicode="y" horiz-adv-x="1187" d="M88 -379l299 485l-225 1029h311l115 -736l411 736h314l-932 -1514h-293z" />
<glyph unicode="z" horiz-adv-x="942" d="M-20 0l45 242l624 651h-444l45 242h770l-45 -242l-623 -651h539l-45 -242h-866z" />
<glyph unicode="{" horiz-adv-x="696" d="M131 543l31 166q95 22 137.5 66t56.5 134l60 322q28 151 112.5 218t245.5 67q20 0 64 -3l-31 -163q-82 -9 -116.5 -29t-49.5 -70l-27 -110l-47 -252q-17 -109 -71.5 -175t-141.5 -83q-10 -2 -20 -6q78 -17 111.5 -56t33.5 -112q0 -56 -8 -95l-47 -251q-13 -77 -14 -86 l-7 -37l7 -31q9 -46 129 -55l-31 -164q-29 -2 -66 -2q-135 0 -197.5 46.5t-62.5 147.5q0 37 11 90l59 322q8 58 8 70q0 104 -129 131z" />
<glyph unicode="|" horiz-adv-x="1228" d="M520 -281v1794h283v-1794h-283z" />
<glyph unicode="}" horiz-adv-x="696" d="M-33 -262l31 164l14 2q32 4 43.5 5t32.5 7t26.5 9t18.5 16.5t16 23t12 35.5t14 47t15 64l48 251q22 117 72.5 178t142.5 81q8 2 18 6q-79 20 -112 59.5t-33 114.5q0 49 8 88l47 252q19 100 20 114q0 46 -25.5 64.5t-109.5 30.5l31 163q47 3 68 3q133 0 195.5 -47.5 t62.5 -147.5q0 -10 -11 -90l-59 -322q-6 -35 -6 -67q0 -54 34 -89t95 -44l-31 -166q-86 -13 -132 -61.5t-64 -139.5l-60 -322q-29 -156 -113 -220t-243 -64q-37 0 -66 2z" />
<glyph unicode="~" horiz-adv-x="1228" d="M154 592q111 143 183.5 197.5t168.5 54.5q64 0 147 -33l129 -55q13 -6 29.5 -13t24 -10.5t18.5 -8t15 -6t11 -3.5t10.5 -2.5t8.5 -1.5t9 -0.5t10 0.5q73 0 186 151l102 -151q-102 -130 -180 -185t-158 -55q-69 0 -180 49l-102 45q-65 28 -83 34.5t-40 6.5q-54 0 -105 -45 q-20 -17 -104 -123z" />
<glyph unicode="&#xa1;" horiz-adv-x="573" d="M23 -379l208 1129h273l-209 -1129h-272zM254 872l49 263h272l-49 -263h-272z" />
<glyph unicode="&#xa2;" d="M156 682q0 198 129.5 359t330.5 210l41 213h256l-41 -213q124 -29 201 -123.5t80 -220.5h-291q-17 38 -66 66t-100 28q-106 0 -183 -79.5t-77 -188.5q0 -82 51 -131t134 -49q46 0 83 16.5t101 65.5h299q-85 -141 -179.5 -218t-226.5 -114l-43 -223h-256l43 223 q-137 31 -211.5 135.5t-74.5 243.5z" />
<glyph unicode="&#xa3;" d="M20 0l48 256h286q70 95 70 203q0 92 -78 176h-291l49 256h119q-12 40 -12 80q0 110 49 215t128.5 182t187 124.5t219.5 47.5q173 0 289 -105.5t116 -263.5q0 -5 -4 -63h-276q0 87 -48 134.5t-114 47.5q-104 0 -185 -87.5t-81 -201.5q0 -61 24 -110h424l-49 -256h-219 q30 -80 30 -156q0 -56 -12 -101.5t-47 -121.5h21q233 0 239 305h271q6 -43 6 -63q0 -78 -51 -178.5t-125 -169.5q-89 -83 -189 -116.5t-260 -33.5h-535z" />
<glyph unicode="&#xa4;" d="M80 469l104 88q-37 78 -37 152q0 99 35.5 196.5t100.5 177.5l-72 93l195 163l75 -90q133 74 275 74q143 0 258 -74l108 90l127 -168l-102 -88q35 -91 35 -170q0 -102 -27 -177t-106 -179l69 -88l-188 -166l-76 86q-60 -34 -141 -55t-150 -21q-126 0 -246 76l-104 -86z M399 760q0 -80 64 -140.5t149 -60.5q125 0 221.5 92.5t96.5 212.5q0 89 -61 150t-150 61q-76 0 -149 -38t-122 -112t-49 -165z" />
<glyph unicode="&#xa5;" d="M43 383l33 178h397l-74 217h-295l33 178h199l-184 557h305l198 -698l455 698h315l-391 -557h195l-33 -178h-295l-156 -217h394l-33 -178h-393l-72 -383h-272l71 383h-397z" />
<glyph unicode="&#xa6;" horiz-adv-x="1228" d="M520 -281v717h283v-717h-283zM520 797v716h283v-716h-283z" />
<glyph unicode="&#xa7;" d="M78 18q0 40 6 95h272q-8 -33 -8 -64q0 -51 52.5 -86t127.5 -35q85 0 145 46t60 112q0 33 -23.5 56t-103.5 69l-303 172q-84 47 -120 105.5t-36 146.5q0 235 226 375q-29 57 -29 127q0 113 63.5 205.5t175 145t246.5 52.5q167 0 261 -86.5t94 -241.5q0 -34 -2 -59h-258 q-6 77 -40.5 107t-117.5 30q-74 0 -117 -32t-43 -89q0 -35 23.5 -63t77.5 -57l305 -166q66 -35 100.5 -93.5t34.5 -132.5q0 -96 -46.5 -177t-168.5 -173q63 -69 63 -178q0 -118 -68 -221.5t-189 -166.5t-265 -63q-181 0 -288 98t-107 242zM393 725l2 -25q3 -30 27 -53.5 t76 -50.5l282 -156q105 74 105 146q0 30 -20 50.5t-87 57.5l-276 152q-50 -31 -79.5 -65t-29.5 -56z" />
<glyph unicode="&#xa8;" horiz-adv-x="1024" d="M328 1298l51 271h272l-51 -271h-272zM758 1298l51 271h272l-51 -271h-272z" />
<glyph unicode="&#xa9;" horiz-adv-x="1515" d="M88 690q0 145 57 278t153 229t229 153t278 57t278 -57t229 -153t153 -229t57 -278t-57 -278t-153 -229t-229 -153t-278 -57t-278 57t-229 153t-153 229t-57 278zM211 690q0 -161 79.5 -298t216.5 -216.5t298 -79.5t298 79.5t216.5 216.5t79.5 298t-79.5 298t-216.5 216.5 t-298 79.5t-298 -79.5t-216.5 -216.5t-79.5 -298zM344 621q-1 92 43 182.5t117 158t172.5 109t202.5 41.5q146 0 251 -71.5t136 -206.5h-213q-32 53 -77.5 74.5t-117.5 21.5q-123 0 -219.5 -84t-95.5 -199q1 -86 64 -141t157 -55q60 0 110 20.5t113 71.5h225 q-63 -123 -193.5 -199t-277.5 -76q-172 0 -283 100.5t-114 252.5z" />
<glyph unicode="&#xaa;" horiz-adv-x="737" d="M123 639l27 143h645l-27 -143h-645zM221 1147q0 156 115.5 274.5t259.5 118.5q114 0 174 -102l16 80h136l-115 -611h-135l16 84q-45 -49 -106.5 -76.5t-122.5 -27.5q-105 0 -171.5 74.5t-66.5 185.5zM383 1180q0 -62 38 -103t95 -41q82 0 143.5 65.5t61.5 153.5 q0 57 -39.5 96.5t-97.5 39.5q-76 0 -138.5 -65.5t-62.5 -145.5z" />
<glyph unicode="&#xab;" horiz-adv-x="942" d="M113 489l39 205l333 267l-47 -252l-159 -117l116 -119l-47 -252zM549 489l39 205l334 267l-48 -252l-159 -117l116 -119l-47 -252z" />
<glyph unicode="&#xac;" horiz-adv-x="1228" d="M158 559v283h1007v-518h-282v235h-725z" />
<glyph unicode="&#xad;" horiz-adv-x="860" d="M188 469l45 242h568l-45 -242h-568z" />
<glyph unicode="&#xae;" horiz-adv-x="1515" d="M88 690q0 145 57 278t153 229t229 153t278 57t278 -57t229 -153t153 -229t57 -278t-57 -278t-153 -229t-229 -153t-278 -57t-278 57t-229 153t-153 229t-57 278zM211 690q0 -161 79.5 -298t216.5 -216.5t298 -79.5t298 79.5t216.5 216.5t79.5 298t-79.5 298t-216.5 216.5 t-298 79.5t-298 -79.5t-216.5 -216.5t-79.5 -298zM451 283l151 817h260q293 0 297 -217q3 -109 -63 -191t-191 -117l180 -292h-241l-148 262l-49 -262h-196zM731 729h53q93 0 136 32t41 87q0 40 -31 55t-109 15h-55z" />
<glyph unicode="&#xaf;" horiz-adv-x="860" d="M332 1333l35 203h573l-37 -203h-571z" />
<glyph unicode="&#xb0;" horiz-adv-x="819" d="M260 1100q0 127 93 216t225 89q126 0 216.5 -90.5t90.5 -216.5q0 -128 -92 -217.5t-222 -89.5q-129 0 -220 90t-91 219zM377 1100q0 -79 57 -136t137 -57q81 0 139 56.5t58 134.5q0 77 -57.5 133.5t-135.5 56.5q-83 0 -140.5 -55t-57.5 -133z" />
<glyph unicode="&#xb1;" horiz-adv-x="1228" d="M158 0v283h1007v-283h-1007zM158 653v283h362v362h283v-362h362v-283h-362v-116h-283v116h-362z" />
<glyph unicode="&#xb2;" horiz-adv-x="688" d="M82 606l31 154l395 301q76 58 109.5 105t33.5 94q0 49 -28.5 76.5t-79.5 27.5q-131 0 -176 -174h-183q34 168 137.5 253t251.5 85q117 0 192 -67t75 -171q0 -101 -59 -189t-187 -177l-213 -150h364l-30 -168h-633z" />
<glyph unicode="&#xb3;" horiz-adv-x="688" d="M106 842q0 4 1 11.5t2 19t2 20.5h186v-16q0 -56 32.5 -89.5t86.5 -33.5q72 0 126 50t54 116q0 61 -45 87.5t-156 26.5l33 172q172 0 172 99q0 28 -19 43.5t-51 15.5q-72 0 -88 -80h-188q28 113 108.5 178.5t194.5 65.5q101 0 166 -58t65 -149q0 -117 -114 -193 q58 -31 84 -72.5t26 -103.5q0 -146 -119 -254t-280 -108q-121 0 -200 71.5t-79 180.5z" />
<glyph unicode="&#xb4;" horiz-adv-x="860" d="M440 1415l484 260l96 -202l-498 -238z" />
<glyph unicode="&#xb5;" horiz-adv-x="1179" d="M-20 -379l280 1514h272l-106 -570q-8 -41 -8 -76q0 -117 60.5 -191.5t154.5 -74.5q55 0 105 28.5t83 76.5q26 40 39 84.5t39 187.5l98 535h273l-211 -1135h-252l20 109q-63 -72 -123 -104t-135 -32q-142 0 -227 133l-90 -485h-272z" />
<glyph unicode="&#xb6;" horiz-adv-x="1228" d="M211 1001q0 105 47 208.5t125 172.5q82 71 190 101t279 30h446l-329 -1775h-209l289 1556h-170l-289 -1556h-207l174 938q-169 9 -257.5 92.5t-88.5 232.5z" />
<glyph unicode="&#xb7;" horiz-adv-x="573" d="M203 512q0 54 38.5 92.5t92.5 38.5t92.5 -38.5t38.5 -92.5t-38.5 -92.5t-92.5 -38.5t-92.5 38.5t-38.5 92.5z" />
<glyph unicode="&#xb8;" horiz-adv-x="696" d="M27 -340h125q14 -59 65 -59q36 0 68 33t32 75q0 31 -18 52.5t-47 21.5q-22 0 -41 -12t-47 -43l-96 53l135 229h106l-86 -129q43 15 62 15q66 0 108.5 -47.5t42.5 -118.5q0 -13 -4 -41q-17 -91 -81 -146t-152 -55q-79 0 -125.5 47.5t-46.5 124.5z" />
<glyph unicode="&#xb9;" horiz-adv-x="688" d="M367 606l137 740h-137l30 167h316l-168 -907h-178z" />
<glyph unicode="&#xba;" horiz-adv-x="737" d="M123 641l27 143h628l-26 -143h-629zM221 1165q0 149 115.5 262t267.5 113q117 0 187.5 -71.5t70.5 -188.5q0 -146 -115 -258.5t-264 -112.5q-109 0 -185.5 74.5t-76.5 181.5zM373 1192q0 -59 39 -96t100 -37q78 0 138.5 59t60.5 135q0 62 -39 103t-97 41 q-79 0 -140.5 -62.5t-61.5 -142.5z" />
<glyph unicode="&#xbb;" horiz-adv-x="942" d="M139 221l47 252l162 119l-119 117l47 252l236 -267l-39 -205zM575 221l48 252l161 119l-118 117l47 252l235 -267l-39 -205z" />
<glyph unicode="&#xbc;" horiz-adv-x="1720" d="M367 0l907 1513h194l-907 -1513h-194zM367 606l137 740h-137l30 167h316l-168 -907h-178zM979 133l27 139l553 635h155l-115 -616h99l-29 -158h-98l-25 -133h-186l24 133h-405zM1204 291h209l57 311z" />
<glyph unicode="&#xbd;" horiz-adv-x="1720" d="M358 0l908 1513h194l-907 -1513h-195zM377 606l137 740h-137l31 167h315l-168 -907h-178zM1001 0l31 154l395 301q77 59 110.5 105t33.5 93q0 49 -29 77t-80 28q-131 0 -176 -174h-182q34 168 137.5 253t251.5 85q117 0 191.5 -67t74.5 -171q0 -101 -59 -189.5 t-187 -177.5l-213 -149h365l-31 -168h-633z" />
<glyph unicode="&#xbe;" horiz-adv-x="1720" d="M106 842q0 4 1 11.5t2 19t2 20.5h186v-16q0 -56 32.5 -89.5t86.5 -33.5q72 0 126 50t54 116q0 61 -45 87.5t-156 26.5l33 172q172 0 172 99q0 28 -19 43.5t-51 15.5q-72 0 -88 -80h-188q28 113 108.5 178.5t194.5 65.5q101 0 166 -58t65 -149q0 -117 -114 -193 q58 -31 84 -72.5t26 -103.5q0 -146 -119 -254t-280 -108q-121 0 -200 71.5t-79 180.5zM432 0l907 1513h195l-907 -1513h-195zM979 133l27 139l553 635h155l-115 -616h99l-29 -158h-98l-25 -133h-186l24 133h-405zM1204 291h209l57 311z" />
<glyph unicode="&#xbf;" d="M96 -29q0 150 82 269q28 39 71.5 80t133.5 110q98 76 133 136t57 186h273q-25 -137 -60.5 -219.5t-98 -150t-183.5 -153.5q-60 -43 -93.5 -99.5t-33.5 -113.5q0 -67 45 -109t117 -42q161 0 221 205h272q-52 -217 -204 -346.5t-353 -129.5q-169 0 -274 105t-105 272z M596 872l47 263h272l-47 -263h-272z" />
<glyph unicode="&#xc0;" horiz-adv-x="1515" d="M-47 0l911 1513h221l355 -1513h-310l-90 391h-538l-240 -391h-309zM653 1831l172 203l387 -260l-149 -181zM655 662h324l-78 456z" />
<glyph unicode="&#xc1;" horiz-adv-x="1515" d="M-47 0l911 1513h221l355 -1513h-310l-90 391h-538l-240 -391h-309zM655 662h324l-78 456zM834 1774l483 260l96 -203l-498 -238z" />
<glyph unicode="&#xc2;" horiz-adv-x="1515" d="M-47 0l911 1513h221l355 -1513h-310l-90 391h-538l-240 -391h-309zM592 1651l354 282h219l244 -282h-297l-84 131l-135 -131h-301zM655 662h324l-78 456z" />
<glyph unicode="&#xc3;" horiz-adv-x="1515" d="M-47 0l911 1513h221l355 -1513h-310l-90 391h-538l-240 -391h-309zM655 662h324l-78 456zM690 1827q41 43 97 70.5t102 27.5q25 0 115 -31.5t110 -31.5q44 0 70.5 11t95.5 60l70 -168q-90 -114 -222 -114q-14 0 -122.5 31.5t-124.5 31.5q-42 0 -113 -61z" />
<glyph unicode="&#xc4;" horiz-adv-x="1515" d="M-47 0l911 1513h221l355 -1513h-310l-90 391h-538l-240 -391h-309zM637 1657l51 270h273l-52 -270h-272zM655 662h324l-78 456zM1067 1657l51 270h273l-52 -270h-272z" />
<glyph unicode="&#xc5;" horiz-adv-x="1515" d="M-47 0l911 1513h221l355 -1513h-310l-90 391h-538l-240 -391h-309zM655 662h324l-78 456zM795 1774q0 110 84.5 193t195.5 83q82 0 137.5 -53.5t55.5 -132.5q0 -110 -85 -193.5t-198 -83.5q-83 0 -136.5 52.5t-53.5 134.5zM948 1800q0 -25 20.5 -44t49.5 -19 q37 0 66.5 29.5t29.5 66.5q0 27 -20 47.5t-47 20.5q-38 0 -68.5 -30.5t-30.5 -70.5z" />
<glyph unicode="&#xc6;" horiz-adv-x="1843" d="M-27 0l1278 1513h695l-50 -270h-446l-68 -352h424l-49 -270h-424l-65 -351h446l-49 -270h-727l72 391h-398l-303 -391h-336zM825 662h236l72 389z" />
<glyph unicode="&#xc7;" horiz-adv-x="1597" d="M127 621q0 174 79 343t207 295t300 203.5t348 77.5q233 0 403.5 -118t231.5 -343h-316q-59 102 -144.5 146.5t-215.5 44.5q-113 0 -223 -48t-194.5 -128.5t-136.5 -192t-52 -231.5q0 -186 118.5 -306t301.5 -120q110 0 202 40t207 138h330q-117 -194 -315.5 -314.5 t-419.5 -132.5l-62 -94q44 15 62 15q66 0 108.5 -47.5t42.5 -118.5q0 -13 -4 -41q-17 -91 -81 -146t-152 -55q-79 0 -125.5 47.5t-46.5 124.5h125q14 -59 65 -59q36 0 68 33t32 75q0 31 -18 52.5t-47 21.5q-22 0 -41 -12t-47 -43l-96 53l114 194q-269 19 -438.5 199.5 t-169.5 446.5z" />
<glyph unicode="&#xc8;" horiz-adv-x="1064" d="M78 0l280 1513h813l-49 -270h-532l-68 -352h510l-49 -270h-510l-65 -351h532l-49 -270h-813zM444 1831l172 203l388 -260l-150 -181z" />
<glyph unicode="&#xc9;" horiz-adv-x="1064" d="M78 0l280 1513h813l-49 -270h-532l-68 -352h510l-49 -270h-510l-65 -351h532l-49 -270h-813zM625 1774l483 260l96 -203l-497 -238z" />
<glyph unicode="&#xca;" horiz-adv-x="1064" d="M78 0l280 1513h813l-49 -270h-532l-68 -352h510l-49 -270h-510l-65 -351h532l-49 -270h-813zM383 1651l354 282h219l244 -282h-297l-84 131l-135 -131h-301z" />
<glyph unicode="&#xcb;" horiz-adv-x="1064" d="M78 0l280 1513h813l-49 -270h-532l-68 -352h510l-49 -270h-510l-65 -351h532l-49 -270h-813zM428 1657l51 270h273l-52 -270h-272zM858 1657l51 270h273l-52 -270h-272z" />
<glyph unicode="&#xcc;" horiz-adv-x="573" d="M78 0l280 1513h281l-281 -1513h-280zM244 1831l172 203l387 -260l-150 -181z" />
<glyph unicode="&#xcd;" horiz-adv-x="573" d="M78 0l280 1513h281l-281 -1513h-280zM293 1774l483 260l96 -203l-497 -238z" />
<glyph unicode="&#xce;" horiz-adv-x="573" d="M78 0l280 1513h281l-281 -1513h-280zM117 1651l354 282h219l244 -282h-297l-84 131l-135 -131h-301z" />
<glyph unicode="&#xcf;" horiz-adv-x="573" d="M78 0l280 1513h281l-281 -1513h-280zM162 1657l51 270h272l-51 -270h-272zM592 1657l51 270h272l-51 -270h-272z" />
<glyph unicode="&#xd0;" horiz-adv-x="1519" d="M88 657l41 220h193l118 636h346q201 0 345 -38.5t230.5 -114.5t126.5 -181t40 -245q0 -240 -104 -449t-287 -333q-120 -82 -263.5 -117t-361.5 -35h-352l121 657h-193zM489 268h62q189 0 310 39t206 127q80 82 127 199t47 235q0 96 -26 164t-85.5 117t-160 72.5 t-244.5 23.5h-55l-68 -368h305l-41 -220h-305z" />
<glyph unicode="&#xd1;" horiz-adv-x="1515" d="M78 0l280 1513h320l422 -1101l205 1101h280l-280 -1513h-314l-428 1100l-205 -1100h-280zM688 1827q41 43 97 70.5t102 27.5q26 0 115.5 -31.5t109.5 -31.5q44 0 70.5 11t95.5 60l70 -168q-90 -114 -222 -114q-14 0 -122.5 31.5t-124.5 31.5q-42 0 -113 -61z" />
<glyph unicode="&#xd2;" horiz-adv-x="1720" d="M125 614q0 122 37.5 241.5t102.5 220.5t156.5 187.5t196.5 147t225 95t240 34.5q186 0 334 -81.5t231 -228t83 -331.5q0 -179 -78 -349.5t-205.5 -296.5t-301 -203t-355.5 -77q-191 0 -343 82t-237.5 228.5t-85.5 330.5zM412 662q0 -183 120.5 -300.5t307.5 -117.5 q155 0 294.5 83.5t224.5 226t85 304.5q0 180 -117 296t-299 116q-156 0 -298.5 -84.5t-230 -226t-87.5 -297.5zM758 1831l172 203l387 -260l-150 -181z" />
<glyph unicode="&#xd3;" horiz-adv-x="1720" d="M125 614q0 122 37.5 241.5t102.5 220.5t156.5 187.5t196.5 147t225 95t240 34.5q186 0 334 -81.5t231 -228t83 -331.5q0 -179 -78 -349.5t-205.5 -296.5t-301 -203t-355.5 -77q-191 0 -343 82t-237.5 228.5t-85.5 330.5zM412 662q0 -183 120.5 -300.5t307.5 -117.5 q155 0 294.5 83.5t224.5 226t85 304.5q0 180 -117 296t-299 116q-156 0 -298.5 -84.5t-230 -226t-87.5 -297.5zM938 1774l483 260l97 -203l-498 -238z" />
<glyph unicode="&#xd4;" horiz-adv-x="1720" d="M125 614q0 122 37.5 241.5t102.5 220.5t156.5 187.5t196.5 147t225 95t240 34.5q186 0 334 -81.5t231 -228t83 -331.5q0 -179 -78 -349.5t-205.5 -296.5t-301 -203t-355.5 -77q-191 0 -343 82t-237.5 228.5t-85.5 330.5zM412 662q0 -183 120.5 -300.5t307.5 -117.5 q155 0 294.5 83.5t224.5 226t85 304.5q0 180 -117 296t-299 116q-156 0 -298.5 -84.5t-230 -226t-87.5 -297.5zM696 1651l355 282h219l243 -282h-296l-84 131l-136 -131h-301z" />
<glyph unicode="&#xd5;" horiz-adv-x="1720" d="M125 614q0 122 37.5 241.5t102.5 220.5t156.5 187.5t196.5 147t225 95t240 34.5q186 0 334 -81.5t231 -228t83 -331.5q0 -179 -78 -349.5t-205.5 -296.5t-301 -203t-355.5 -77q-191 0 -343 82t-237.5 228.5t-85.5 330.5zM412 662q0 -183 120.5 -300.5t307.5 -117.5 q155 0 294.5 83.5t224.5 226t85 304.5q0 180 -117 296t-299 116q-156 0 -298.5 -84.5t-230 -226t-87.5 -297.5zM795 1827q41 43 96.5 70.5t101.5 27.5q25 0 116 -31.5t110 -31.5q43 0 69 11t96 60l70 -168q-90 -114 -221 -114q-14 0 -123 31.5t-125 31.5q-42 0 -113 -61z " />
<glyph unicode="&#xd6;" horiz-adv-x="1720" d="M125 614q0 122 37.5 241.5t102.5 220.5t156.5 187.5t196.5 147t225 95t240 34.5q186 0 334 -81.5t231 -228t83 -331.5q0 -179 -78 -349.5t-205.5 -296.5t-301 -203t-355.5 -77q-191 0 -343 82t-237.5 228.5t-85.5 330.5zM412 662q0 -183 120.5 -300.5t307.5 -117.5 q155 0 294.5 83.5t224.5 226t85 304.5q0 180 -117 296t-299 116q-156 0 -298.5 -84.5t-230 -226t-87.5 -297.5zM741 1657l52 270h272l-51 -270h-273zM1171 1657l52 270h272l-51 -270h-273z" />
<glyph unicode="&#xd7;" horiz-adv-x="1228" d="M205 256l256 256l-256 256l201 201l256 -256l256 256l200 -201l-256 -256l256 -256l-200 -201l-256 256l-256 -256z" />
<glyph unicode="&#xd8;" horiz-adv-x="1720" d="M125 -23l170 201q-160 186 -160 430q0 179 78.5 350.5t207 298.5t302 205t354.5 78q166 0 324 -67l188 219l166 -142l-180 -209q168 -160 168 -444q0 -135 -48.5 -271t-137 -252t-204 -207t-258.5 -142.5t-290 -51.5q-166 0 -336 74l-180 -211zM422 659q0 -114 74 -247 l706 829q-86 29 -170 29q-117 0 -229.5 -51t-195.5 -134.5t-134 -196t-51 -229.5zM666 279q85 -35 182 -35q119 0 231 49.5t194.5 131.5t132.5 194t50 231q0 160 -78 260z" />
<glyph unicode="&#xd9;" horiz-adv-x="1310" d="M162 360q0 89 20 195l176 958h281l-176 -958q-19 -105 -19 -143q0 -69 56 -118.5t133 -49.5q114 0 187 73.5t104 237.5l176 958h280l-176 -958q-51 -279 -219.5 -430.5t-400.5 -151.5q-183 0 -302.5 110t-119.5 277zM549 1831l172 203l387 -260l-150 -181z" />
<glyph unicode="&#xda;" horiz-adv-x="1310" d="M162 360q0 89 20 195l176 958h281l-176 -958q-19 -105 -19 -143q0 -69 56 -118.5t133 -49.5q114 0 187 73.5t104 237.5l176 958h280l-176 -958q-51 -279 -219.5 -430.5t-400.5 -151.5q-183 0 -302.5 110t-119.5 277zM729 1774l483 260l97 -203l-498 -238z" />
<glyph unicode="&#xdb;" horiz-adv-x="1310" d="M162 360q0 89 20 195l176 958h281l-176 -958q-19 -105 -19 -143q0 -69 56 -118.5t133 -49.5q114 0 187 73.5t104 237.5l176 958h280l-176 -958q-51 -279 -219.5 -430.5t-400.5 -151.5q-183 0 -302.5 110t-119.5 277zM487 1651l355 282h219l244 -282h-297l-84 131 l-136 -131h-301z" />
<glyph unicode="&#xdc;" horiz-adv-x="1310" d="M162 360q0 89 20 195l176 958h281l-176 -958q-19 -105 -19 -143q0 -69 56 -118.5t133 -49.5q114 0 187 73.5t104 237.5l176 958h280l-176 -958q-51 -279 -219.5 -430.5t-400.5 -151.5q-183 0 -302.5 110t-119.5 277zM532 1657l52 270h272l-51 -270h-273zM963 1657l51 270 h272l-51 -270h-272z" />
<glyph unicode="&#xdd;" horiz-adv-x="1269" d="M225 1513h303l205 -696l465 696h303l-674 -954l-104 -559h-281l105 559zM723 1774l483 260l97 -203l-498 -238z" />
<glyph unicode="&#xde;" d="M78 0l280 1513h281l-53 -286h94q148 0 233.5 -16t139.5 -54q141 -101 141 -293q0 -117 -49 -234.5t-131 -195.5q-93 -89 -193.5 -117t-318.5 -28h-90l-54 -289h-280zM461 557h82q85 0 149.5 12t114 39.5t75 74.5t25.5 114q0 61 -20.5 93.5t-80 49t-175.5 16.5h-94z" />
<glyph unicode="&#xdf;" horiz-adv-x="1228" d="M43 0l184 997q45 249 193 396t362 147q166 0 270.5 -95.5t104.5 -246.5q0 -112 -50.5 -207t-162.5 -153q141 -37 211 -116.5t70 -189.5q0 -151 -79.5 -280.5t-211 -204t-281.5 -74.5q-257 0 -329 189l-31 -162h-250zM387 387h168q11 -80 53 -122t111 -42q91 0 158 71.5 t67 168.5q0 66 -26 103t-101.5 58t-214.5 21h-22l45 242h22q94 0 162 78.5t68 187.5q0 63 -39.5 100t-104.5 37q-178 0 -227 -260z" />
<glyph unicode="&#xe0;" horiz-adv-x="1351" d="M92 436q0 145 57 279.5t152 232t225.5 155.5t272.5 58q237 0 334 -178l26 152h250l-209 -1135h-250l27 147q-96 -91 -193 -132.5t-217 -41.5q-215 0 -345 127t-130 336zM373 492q0 -123 75 -196t201 -73q170 0 287 119.5t117 298.5q0 124 -74.5 197t-200.5 73 q-107 0 -200.5 -57.5t-149 -154.5t-55.5 -207zM477 1473l172 202l387 -260l-149 -180z" />
<glyph unicode="&#xe1;" horiz-adv-x="1351" d="M92 436q0 145 57 279.5t152 232t225.5 155.5t272.5 58q237 0 334 -178l26 152h250l-209 -1135h-250l27 147q-96 -91 -193 -132.5t-217 -41.5q-215 0 -345 127t-130 336zM373 492q0 -123 75 -196t201 -73q170 0 287 119.5t117 298.5q0 124 -74.5 197t-200.5 73 q-107 0 -200.5 -57.5t-149 -154.5t-55.5 -207zM655 1415l484 260l96 -202l-498 -238z" />
<glyph unicode="&#xe2;" horiz-adv-x="1351" d="M92 436q0 145 57 279.5t152 232t225.5 155.5t272.5 58q237 0 334 -178l26 152h250l-209 -1135h-250l27 147q-96 -91 -193 -132.5t-217 -41.5q-215 0 -345 127t-130 336zM373 492q0 -123 75 -196t201 -73q170 0 287 119.5t117 298.5q0 124 -74.5 197t-200.5 73 q-107 0 -200.5 -57.5t-149 -154.5t-55.5 -207zM414 1292l354 283h219l244 -283h-297l-84 131l-135 -131h-301z" />
<glyph unicode="&#xe3;" horiz-adv-x="1351" d="M92 436q0 145 57 279.5t152 232t225.5 155.5t272.5 58q237 0 334 -178l26 152h250l-209 -1135h-250l27 147q-96 -91 -193 -132.5t-217 -41.5q-215 0 -345 127t-130 336zM373 492q0 -123 75 -196t201 -73q170 0 287 119.5t117 298.5q0 124 -74.5 197t-200.5 73 q-107 0 -200.5 -57.5t-149 -154.5t-55.5 -207zM514 1468q41 43 97.5 71t101.5 28q25 0 115 -32t110 -32q43 0 69.5 11.5t96.5 60.5l70 -168q-91 -115 -222 -115q-14 0 -122.5 32t-124.5 32q-23 0 -47.5 -13.5t-65.5 -48.5z" />
<glyph unicode="&#xe4;" horiz-adv-x="1351" d="M92 436q0 145 57 279.5t152 232t225.5 155.5t272.5 58q237 0 334 -178l26 152h250l-209 -1135h-250l27 147q-96 -91 -193 -132.5t-217 -41.5q-215 0 -345 127t-130 336zM373 492q0 -123 75 -196t201 -73q170 0 287 119.5t117 298.5q0 124 -74.5 197t-200.5 73 q-107 0 -200.5 -57.5t-149 -154.5t-55.5 -207zM461 1298l51 271h272l-51 -271h-272zM891 1298l51 271h272l-51 -271h-272z" />
<glyph unicode="&#xe5;" horiz-adv-x="1351" d="M92 436q0 145 57 279.5t152 232t225.5 155.5t272.5 58q237 0 334 -178l26 152h250l-209 -1135h-250l27 147q-96 -91 -193 -132.5t-217 -41.5q-215 0 -345 127t-130 336zM373 492q0 -123 75 -196t201 -73q170 0 287 119.5t117 298.5q0 124 -74.5 197t-200.5 73 q-107 0 -200.5 -57.5t-149 -154.5t-55.5 -207zM616 1409q0 110 85 193.5t198 83.5q80 0 135.5 -54t55.5 -133q0 -110 -85 -193t-196 -83q-84 0 -138.5 52.5t-54.5 133.5zM770 1436q0 -25 20.5 -44.5t49.5 -19.5q37 0 66.5 29.5t29.5 66.5q0 27 -20.5 47.5t-47.5 20.5 q-38 0 -68 -30t-30 -70z" />
<glyph unicode="&#xe6;" horiz-adv-x="2211" d="M94 442q0 141 58 273.5t153.5 230t225.5 156.5t268 59q112 0 186 -32.5t133 -106.5l21 113h250l-21 -113q83 74 171.5 106.5t205.5 32.5q198 0 330.5 -131.5t132.5 -329.5q0 -118 -56 -251h-876q12 -103 87 -164.5t189 -61.5q153 0 263 113h296q-90 -163 -251.5 -263 t-337.5 -100q-112 0 -188 32.5t-132 117.5l-24 -123h-250l24 123q-91 -85 -169.5 -117.5t-192.5 -32.5q-221 0 -358.5 130t-137.5 339zM375 492q0 -121 73 -195t193 -74q104 0 194 57t143.5 153t53.5 206q0 125 -78.5 198.5t-185.5 73.5q-161 0 -277 -123.5t-116 -295.5z M1307 690h622q-22 127 -85.5 174t-180.5 47q-240 0 -356 -221z" />
<glyph unicode="&#xe7;" horiz-adv-x="1310" d="M96 457q0 182 100 345t266 261t351 98q195 0 329.5 -103.5t168.5 -301.5h-307q-23 75 -83 115t-149 40q-161 0 -278 -121t-117 -288q0 -126 73.5 -202.5t194.5 -76.5q83 0 158.5 39.5t128.5 110.5h307q-101 -180 -251.5 -282t-332.5 -116l-63 -94q44 15 61 15 q66 0 109 -47.5t43 -118.5q0 -13 -4 -41q-17 -91 -81.5 -146t-152.5 -55q-79 0 -125.5 47.5t-46.5 124.5h125q14 -59 66 -59q36 0 68 33t32 75q0 31 -18 52.5t-47 21.5q-39 0 -89 -55l-96 53l115 194q-199 17 -327 152.5t-128 329.5z" />
<glyph unicode="&#xe8;" horiz-adv-x="1310" d="M94 457q0 182 100.5 345t267.5 261t353 98q214 0 349.5 -129t135.5 -332q0 -161 -40 -254h-879q0 -98 74.5 -160.5t191.5 -62.5q164 0 277 113h297q-92 -169 -256.5 -266t-356.5 -97q-227 0 -370.5 135t-143.5 349zM418 688h629q-12 223 -275 223q-119 0 -216.5 -61.5 t-137.5 -161.5zM494 1473l172 202l387 -260l-150 -180z" />
<glyph unicode="&#xe9;" horiz-adv-x="1310" d="M94 457q0 182 100.5 345t267.5 261t353 98q214 0 349.5 -129t135.5 -332q0 -161 -40 -254h-879q0 -98 74.5 -160.5t191.5 -62.5q164 0 277 113h297q-92 -169 -256.5 -266t-356.5 -97q-227 0 -370.5 135t-143.5 349zM418 688h629q-12 223 -275 223q-119 0 -216.5 -61.5 t-137.5 -161.5zM672 1415l483 260l96 -202l-497 -238z" />
<glyph unicode="&#xea;" horiz-adv-x="1310" d="M94 457q0 182 100.5 345t267.5 261t353 98q214 0 349.5 -129t135.5 -332q0 -161 -40 -254h-879q0 -98 74.5 -160.5t191.5 -62.5q164 0 277 113h297q-92 -169 -256.5 -266t-356.5 -97q-227 0 -370.5 135t-143.5 349zM418 688h629q-12 223 -275 223q-119 0 -216.5 -61.5 t-137.5 -161.5zM430 1292l354 283h220l243 -283h-297l-84 131l-135 -131h-301z" />
<glyph unicode="&#xeb;" horiz-adv-x="1310" d="M94 457q0 182 100.5 345t267.5 261t353 98q214 0 349.5 -129t135.5 -332q0 -161 -40 -254h-879q0 -98 74.5 -160.5t191.5 -62.5q164 0 277 113h297q-92 -169 -256.5 -266t-356.5 -97q-227 0 -370.5 135t-143.5 349zM418 688h629q-12 223 -275 223q-119 0 -216.5 -61.5 t-137.5 -161.5zM477 1298l51 271h273l-51 -271h-273zM907 1298l51 271h273l-51 -271h-273z" />
<glyph unicode="&#xec;" horiz-adv-x="491" d="M49 0l211 1135h272l-210 -1135h-273zM141 1473l172 202l387 -260l-149 -180z" />
<glyph unicode="&#xed;" horiz-adv-x="491" d="M49 0l211 1135h272l-210 -1135h-273zM195 1415l483 260l96 -202l-498 -238z" />
<glyph unicode="&#xee;" horiz-adv-x="491" d="M16 1292l355 283h219l244 -283h-297l-84 131l-136 -131h-301zM49 0l211 1135h272l-210 -1135h-273z" />
<glyph unicode="&#xef;" horiz-adv-x="491" d="M49 0l211 1135h272l-210 -1135h-273zM63 1298l52 271h272l-51 -271h-273zM494 1298l51 271h272l-51 -271h-272z" />
<glyph unicode="&#xf0;" horiz-adv-x="1310" d="M94 469q0 128 57.5 251t150.5 215t219 148t257 56q57 0 144 -33q-51 60 -81 91.5t-73 68.5l-174 -68l-70 98l154 62l-33 31q-3 1 -82 63l191 98q92 -69 137 -112l188 75l86 -90l-178 -73q166 -142 255 -310.5t89 -337.5q0 -141 -60.5 -275.5t-159.5 -233.5t-233.5 -159.5 t-275.5 -60.5q-223 0 -365.5 139.5t-142.5 356.5zM375 498q0 -119 78 -197t198 -78q101 0 194 58t149.5 153.5t56.5 198.5q0 120 -77 199t-194 79q-104 0 -198 -57.5t-150.5 -153.5t-56.5 -202z" />
<glyph unicode="&#xf1;" horiz-adv-x="1228" d="M49 0l211 1135h252l-20 -109q94 75 168.5 105t168.5 30q175 0 270 -87t95 -249q0 -76 -25 -217l-112 -608h-273l103 555q18 102 18 188q0 168 -172 168q-58 0 -102 -15t-86 -54t-73 -115.5t-52 -191.5l-98 -535h-273zM483 1468q41 43 97 71t102 28q25 0 115 -32t110 -32 q43 0 69.5 11.5t96.5 60.5l70 -168q-91 -115 -221 -115q-14 0 -123 32t-125 32q-23 0 -47.5 -13.5t-65.5 -48.5z" />
<glyph unicode="&#xf2;" horiz-adv-x="1310" d="M94 453q0 138 60 268.5t158.5 226.5t233 154.5t275.5 58.5q218 0 359 -138.5t141 -352.5q0 -135 -60.5 -263.5t-160 -223t-234.5 -152.5t-276 -58q-211 0 -353.5 138t-142.5 342zM375 500q0 -120 76.5 -198.5t193.5 -78.5q100 0 192 58t147.5 153.5t55.5 198.5 q0 120 -75.5 199t-190.5 79q-102 0 -195 -57.5t-148.5 -153t-55.5 -200.5zM500 1473l172 202l387 -260l-150 -180z" />
<glyph unicode="&#xf3;" horiz-adv-x="1310" d="M94 453q0 138 60 268.5t158.5 226.5t233 154.5t275.5 58.5q218 0 359 -138.5t141 -352.5q0 -135 -60.5 -263.5t-160 -223t-234.5 -152.5t-276 -58q-211 0 -353.5 138t-142.5 342zM375 500q0 -120 76.5 -198.5t193.5 -78.5q100 0 192 58t147.5 153.5t55.5 198.5 q0 120 -75.5 199t-190.5 79q-102 0 -195 -57.5t-148.5 -153t-55.5 -200.5zM678 1415l483 260l96 -202l-497 -238z" />
<glyph unicode="&#xf4;" horiz-adv-x="1310" d="M94 453q0 138 60 268.5t158.5 226.5t233 154.5t275.5 58.5q218 0 359 -138.5t141 -352.5q0 -135 -60.5 -263.5t-160 -223t-234.5 -152.5t-276 -58q-211 0 -353.5 138t-142.5 342zM375 500q0 -120 76.5 -198.5t193.5 -78.5q100 0 192 58t147.5 153.5t55.5 198.5 q0 120 -75.5 199t-190.5 79q-102 0 -195 -57.5t-148.5 -153t-55.5 -200.5zM436 1292l355 283h219l243 -283h-297l-84 131l-135 -131h-301z" />
<glyph unicode="&#xf5;" horiz-adv-x="1310" d="M94 453q0 138 60 268.5t158.5 226.5t233 154.5t275.5 58.5q218 0 359 -138.5t141 -352.5q0 -135 -60.5 -263.5t-160 -223t-234.5 -152.5t-276 -58q-211 0 -353.5 138t-142.5 342zM375 500q0 -120 76.5 -198.5t193.5 -78.5q100 0 192 58t147.5 153.5t55.5 198.5 q0 120 -75.5 199t-190.5 79q-102 0 -195 -57.5t-148.5 -153t-55.5 -200.5zM537 1468q42 43 97.5 71t100.5 28q25 0 116 -32t110 -32q43 0 69 11.5t96 60.5l70 -168q-91 -115 -221 -115q-14 0 -123 32t-125 32q-23 0 -47.5 -13.5t-65.5 -48.5z" />
<glyph unicode="&#xf6;" horiz-adv-x="1310" d="M94 453q0 138 60 268.5t158.5 226.5t233 154.5t275.5 58.5q218 0 359 -138.5t141 -352.5q0 -135 -60.5 -263.5t-160 -223t-234.5 -152.5t-276 -58q-211 0 -353.5 138t-142.5 342zM375 500q0 -120 76.5 -198.5t193.5 -78.5q100 0 192 58t147.5 153.5t55.5 198.5 q0 120 -75.5 199t-190.5 79q-102 0 -195 -57.5t-148.5 -153t-55.5 -200.5zM483 1298l52 271h272l-51 -271h-273zM913 1298l52 271h272l-51 -271h-273z" />
<glyph unicode="&#xf7;" horiz-adv-x="1228" d="M158 371v282h1007v-282h-1007zM530 133q0 55 39 93t93 38t92.5 -38t38.5 -93q0 -54 -38.5 -92.5t-92.5 -38.5t-93 38.5t-39 92.5zM530 891q0 54 39 92.5t93 38.5t92.5 -38.5t38.5 -92.5q0 -55 -38.5 -93t-92.5 -38t-93 38t-39 93z" />
<glyph unicode="&#xf8;" horiz-adv-x="1351" d="M94 -4l123 143q-62 77 -89.5 151t-27.5 163q0 138 60 268.5t158.5 226.5t232 154.5t274.5 58.5q121 0 224 -47l133 156l149 -127l-123 -146q119 -140 119 -325q0 -132 -60.5 -260.5t-159.5 -224.5t-231.5 -155t-269.5 -59q-116 0 -233 50l-129 -154zM381 498 q0 -66 29 -133l456 532q-57 14 -92 14q-99 0 -190.5 -58.5t-147 -154.5t-55.5 -200zM559 238q41 -15 84 -15q157 0 280.5 124.5t123.5 283.5q0 95 -33 141z" />
<glyph unicode="&#xf9;" horiz-adv-x="1228" d="M119 311q0 83 24 215l113 609h272l-102 -555q-23 -118 -20 -197q0 -75 44.5 -117.5t122.5 -42.5q67 0 114.5 15t89.5 55.5t71.5 115.5t50.5 191l98 535h273l-211 -1135h-252l20 109q-89 -73 -171 -104.5t-185 -31.5q-165 0 -258.5 95t-93.5 243zM446 1473l172 202 l388 -260l-150 -180z" />
<glyph unicode="&#xfa;" horiz-adv-x="1228" d="M119 311q0 83 24 215l113 609h272l-102 -555q-23 -118 -20 -197q0 -75 44.5 -117.5t122.5 -42.5q67 0 114.5 15t89.5 55.5t71.5 115.5t50.5 191l98 535h273l-211 -1135h-252l20 109q-89 -73 -171 -104.5t-185 -31.5q-165 0 -258.5 95t-93.5 243zM625 1415l483 260 l96 -202l-497 -238z" />
<glyph unicode="&#xfb;" horiz-adv-x="1228" d="M119 311q0 83 24 215l113 609h272l-102 -555q-23 -118 -20 -197q0 -75 44.5 -117.5t122.5 -42.5q67 0 114.5 15t89.5 55.5t71.5 115.5t50.5 191l98 535h273l-211 -1135h-252l20 109q-89 -73 -171 -104.5t-185 -31.5q-165 0 -258.5 95t-93.5 243zM383 1292l354 283h219 l244 -283h-297l-84 131l-135 -131h-301z" />
<glyph unicode="&#xfc;" horiz-adv-x="1228" d="M119 311q0 83 24 215l113 609h272l-102 -555q-23 -118 -20 -197q0 -75 44.5 -117.5t122.5 -42.5q67 0 114.5 15t89.5 55.5t71.5 115.5t50.5 191l98 535h273l-211 -1135h-252l20 109q-89 -73 -171 -104.5t-185 -31.5q-165 0 -258.5 95t-93.5 243zM430 1298l51 271h273 l-52 -271h-272zM860 1298l51 271h273l-51 -271h-273z" />
<glyph unicode="&#xfd;" horiz-adv-x="1187" d="M88 -379l299 485l-225 1029h311l115 -736l411 736h314l-932 -1514h-293zM598 1415l483 260l97 -202l-498 -238z" />
<glyph unicode="&#xfe;" horiz-adv-x="1351" d="M-20 -379l350 1892h250l-95 -512q72 75 179 117.5t221 42.5q207 0 338 -123t131 -333q0 -148 -54.5 -283t-147 -233.5t-220 -157t-266.5 -58.5q-203 0 -324 133l-90 -485h-272zM403 494q0 -117 79 -194t200 -77q99 0 190 58.5t146 153.5t55 198q0 118 -72.5 198 t-195.5 80q-161 0 -281.5 -125t-120.5 -292z" />
<glyph unicode="&#xff;" horiz-adv-x="1187" d="M88 -379l299 485l-225 1029h311l115 -736l411 736h314l-932 -1514h-293zM403 1298l52 271h272l-51 -271h-273zM834 1298l51 271h272l-51 -271h-272z" />
<glyph unicode="&#x152;" horiz-adv-x="2170" d="M143 594q0 187 75.5 361.5t201 302.5t297 205t354.5 77q152 0 267 -51t178 -146l30 170h729l-49 -270h-444l-68 -352h422l-49 -270h-422l-66 -351h445l-49 -270h-729l30 168q-95 -91 -229 -143t-272 -52q-142 0 -263.5 46t-206.5 127.5t-133.5 197t-48.5 250.5zM430 651 q0 -178 113 -291.5t295 -113.5q157 0 292 83.5t214 225.5t79 307q0 182 -109.5 294t-287.5 112q-119 0 -230 -52.5t-190.5 -137.5t-127.5 -198t-48 -229z" />
<glyph unicode="&#x153;" horiz-adv-x="2211" d="M94 455q0 137 59 267t155.5 226t227 154.5t267.5 58.5q148 0 246.5 -54.5t171.5 -172.5q127 123 238.5 175t246.5 52q220 0 358 -125.5t138 -324.5q0 -63 -8.5 -111.5t-39.5 -153.5h-878q13 -106 89 -164.5t183 -58.5q72 0 147 31t122 80h288q-62 -146 -240.5 -253.5 t-361.5 -107.5q-142 0 -253.5 62t-164.5 170q-200 -232 -493 -232q-222 0 -360 133.5t-138 348.5zM375 498q0 -119 76.5 -197t193.5 -78q111 0 203.5 62.5t142 157t49.5 194.5q0 123 -74 198.5t-194 75.5q-160 0 -278.5 -123t-118.5 -290zM1309 688h618q-17 116 -80.5 169.5 t-183.5 53.5q-118 0 -204.5 -54.5t-149.5 -168.5z" />
<glyph unicode="&#x178;" horiz-adv-x="1269" d="M225 1513h303l205 -696l465 696h303l-674 -954l-104 -559h-281l105 559zM526 1657l52 270h272l-51 -270h-273zM956 1657l52 270h272l-51 -270h-273z" />
<glyph unicode="&#x2c6;" horiz-adv-x="1105" d="M322 1292l354 283h219l244 -283h-297l-84 131l-135 -131h-301z" />
<glyph unicode="&#x2dc;" horiz-adv-x="983" d="M360 1468q41 43 97.5 71t101.5 28q25 0 115 -32t110 -32q43 0 69.5 11.5t96.5 60.5l70 -168q-91 -115 -221 -115q-14 0 -123 32t-125 32q-23 0 -47.5 -13.5t-65.5 -48.5z" />
<glyph unicode="&#x2000;" horiz-adv-x="1025" />
<glyph unicode="&#x2001;" horiz-adv-x="2050" />
<glyph unicode="&#x2002;" horiz-adv-x="1025" />
<glyph unicode="&#x2003;" horiz-adv-x="2050" />
<glyph unicode="&#x2004;" horiz-adv-x="683" />
<glyph unicode="&#x2005;" horiz-adv-x="512" />
<glyph unicode="&#x2006;" horiz-adv-x="341" />
<glyph unicode="&#x2007;" horiz-adv-x="341" />
<glyph unicode="&#x2008;" horiz-adv-x="256" />
<glyph unicode="&#x2009;" horiz-adv-x="410" />
<glyph unicode="&#x200a;" horiz-adv-x="113" />
<glyph unicode="&#x2010;" horiz-adv-x="860" d="M188 469l45 242h568l-45 -242h-568z" />
<glyph unicode="&#x2011;" horiz-adv-x="860" d="M188 469l45 242h568l-45 -242h-568z" />
<glyph unicode="&#x2012;" horiz-adv-x="860" d="M188 469l45 242h568l-45 -242h-568z" />
<glyph unicode="&#x2013;" horiz-adv-x="1024" d="M37 469l45 242h1024l-45 -242h-1024z" />
<glyph unicode="&#x2014;" horiz-adv-x="2048" d="M37 469l45 242h2048l-45 -242h-2048z" />
<glyph unicode="&#x2018;" horiz-adv-x="573" d="M268 954l54 287q13 120 102 195t217 77l-27 -137q-76 -17 -107.5 -51t-39.5 -108h119l-49 -263h-269z" />
<glyph unicode="&#x2019;" horiz-adv-x="573" d="M264 954l25 138q71 9 107 47.5t42 111.5h-119l50 262h270l-53 -286q-9 -116 -103.5 -194.5t-218.5 -78.5z" />
<glyph unicode="&#x201a;" horiz-adv-x="573" d="M33 -287l24 137q74 11 109.5 47t38.5 103h-119l49 262h271l-52 -276q-24 -125 -109 -199t-190 -74h-22z" />
<glyph unicode="&#x201c;" horiz-adv-x="983" d="M264 954l53 287q13 120 102.5 195t217.5 77l-27 -137q-76 -17 -107.5 -51t-39.5 -108h119l-50 -263h-268zM688 954l53 287q13 120 102.5 195t217.5 77l-27 -137q-76 -17 -107.5 -51t-39.5 -108h119l-50 -263h-268z" />
<glyph unicode="&#x201d;" horiz-adv-x="983" d="M260 954l25 138q71 9 107 47.5t42 111.5h-119l50 262h270l-53 -286q-9 -114 -104 -195t-218 -78zM684 954l25 138q71 9 107 47.5t42 111.5h-119l49 262h271l-53 -286q-9 -114 -104 -195t-218 -78z" />
<glyph unicode="&#x201e;" horiz-adv-x="983" d="M31 -297l24 137q71 9 107.5 48t42.5 112h-119l49 262h271l-54 -287q-21 -117 -110.5 -194.5t-210.5 -77.5zM455 -297l24 137q71 9 107.5 48t42.5 112h-119l49 262h270l-53 -287q-15 -116 -106.5 -194t-214.5 -78z" />
<glyph unicode="&#x2022;" horiz-adv-x="1228" d="M328 647q0 145 103 247.5t249 102.5q142 0 246 -103.5t104 -246.5q0 -148 -103 -250t-251 -102q-143 0 -245.5 103t-102.5 249z" />
<glyph unicode="&#x2026;" horiz-adv-x="2048" d="M143 0l50 262h274l-49 -262h-275zM825 0l49 262h275l-49 -262h-275zM1507 0l49 262h275l-49 -262h-275z" />
<glyph unicode="&#x202f;" horiz-adv-x="410" />
<glyph unicode="&#x2039;" horiz-adv-x="491" d="M113 489l39 205l333 267l-47 -252l-159 -117l116 -119l-47 -252z" />
<glyph unicode="&#x203a;" horiz-adv-x="491" d="M139 221l47 252l162 119l-119 117l47 252l236 -267l-39 -205z" />
<glyph unicode="&#x205f;" horiz-adv-x="512" />
<glyph unicode="&#x20ac;" d="M-129 532l84 181h139q9 52 19 92h-193l82 180h162q121 292 297.5 422.5t431.5 130.5q124 0 217 -30t207 -107l-121 -211q-182 121 -346 121q-143 0 -238.5 -75t-177.5 -251h645l-102 -180h-590l-18 -92h557l-103 -181h-477q12 -151 88 -234t217 -83q56 0 124.5 18 t193.5 64l-47 -252q-97 -37 -174 -52.5t-166 -15.5q-182 0 -320 95q-94 65 -136 169.5t-48 290.5h-207z" />
<glyph unicode="&#x2122;" horiz-adv-x="2097" d="M403 1317l35 196h586l-35 -196h-182l-129 -688h-225l129 688h-179zM983 629l164 884h283l135 -598l356 598h285l-164 -884h-225l98 530l-311 -530h-179l-116 540l-101 -540h-225z" />
<glyph unicode="&#x25fc;" horiz-adv-x="1136" d="M0 0v1137h1137v-1137h-1137z" />
<glyph unicode="&#xfb03;" horiz-adv-x="1632" d="M55 0l164 887h-98l43 227h98q53 203 170.5 301t272.5 98q34 0 79 -4l-49 -258h-37q-75 0 -114.5 -33t-48.5 -104h294q53 203 170.5 301t272.5 98q35 0 80 -4l-49 -258h-37q-147 0 -164 -137h160l-43 -227h-160l-164 -887h-272l163 887h-294l-164 -887h-273zM1190 0 l211 1135h272l-211 -1135h-272zM1430 1298l51 271h272l-51 -271h-272z" />
</font>
</defs>
</svg>
